<svg width="18" height="11" viewBox="0 0 18 11" fill="none" xmlns="http://www.w3.org/2000/svg">
<path fill-rule="evenodd" clip-rule="evenodd" d="M9.02785 9.98237H10.0089C10.0089 9.98237 10.3053 9.94983 10.4566 9.78673C10.5959 9.63699 10.5914 9.35578 10.5914 9.35578C10.5914 9.35578 10.5722 8.03934 11.1832 7.84548C11.7855 7.65452 12.5589 9.11781 13.3787 9.68044C13.9986 10.1063 14.4697 10.0129 14.4697 10.0129L16.6616 9.98237C16.6616 9.98237 17.8082 9.91173 17.2645 9.01018C17.22 8.93643 16.9479 8.34327 15.6348 7.12442C14.2604 5.84875 14.4445 6.05509 16.1001 3.84846C17.1084 2.5046 17.5114 1.68416 17.3855 1.33277C17.2654 0.998088 16.5239 1.08655 16.5239 1.08655L14.0559 1.10192C14.0559 1.10192 13.8729 1.07697 13.7372 1.15808C13.6047 1.23762 13.5193 1.42301 13.5193 1.42301C13.5193 1.42301 13.1287 2.46294 12.6077 3.34733C11.5088 5.21348 11.0694 5.31197 10.8898 5.1961C10.472 4.92604 10.5763 4.11117 10.5763 3.53227C10.5763 1.72383 10.8505 0.96979 10.0421 0.774596C9.77386 0.709754 9.57644 0.666972 8.89036 0.660064C8.00976 0.650929 7.26441 0.662738 6.84239 0.869519C6.56163 1.007 6.34504 1.31338 6.47695 1.33099C6.64006 1.35282 7.0095 1.43059 7.20537 1.69731C7.45827 2.04135 7.44936 2.81411 7.44936 2.81411C7.44936 2.81411 7.59464 4.94297 7.11 5.20746C6.77732 5.38884 6.32098 5.01851 5.34122 3.32549C4.83919 2.45826 4.46017 1.49967 4.46017 1.49967C4.46017 1.49967 4.38708 1.32051 4.25673 1.2247C4.09853 1.10861 3.87748 1.07162 3.87748 1.07162L1.53226 1.08699C1.53226 1.08699 1.1802 1.0968 1.05096 1.24988C0.93598 1.38603 1.04182 1.66768 1.04182 1.66768C1.04182 1.66768 2.87789 5.96328 4.95685 8.12802C6.86311 10.1127 9.02785 9.98237 9.02785 9.98237Z" fill="white"/>
</svg>
